<?xml version="1.0" encoding="utf-8"?>

<!DOCTYPE svg PUBLIC "-//W3C//DTD SVG 1.0//EN" "http://www.w3.org/TR/2001/REC-SVG-20010904/DTD/svg10.dtd">
<!-- Uploaded to: SVG Repo, www.svgrepo.com, Generator: SVG Repo Mixer Tools -->
<svg version="1.0" id="Layer_1" xmlns="http://www.w3.org/2000/svg" xmlns:xlink="http://www.w3.org/1999/xlink" 
	 width="800px" height="800px" viewBox="0 0 64 64" enable-background="new 0 0 64 64" xml:space="preserve">
<g>
	<path fill="rgba(7, 66, 86)" d="M21,22h9c2.211,0,4-1.789,4-4V4c0-2.211-1.789-4-4-4H14c-0.52,0-1.039,0.105-1.527,0.309
		c-0.492,0.203-0.938,0.496-1.309,0.871C10.766,1.578,2,12,2,32s8.316,29.688,8.672,30.219c0.113,0.172,0.262,0.309,0.395,0.457
		c0.062,0.066,0.109,0.137,0.176,0.199c0.328,0.316,0.699,0.562,1.102,0.742c0.086,0.043,0.176,0.07,0.266,0.102
		C13.055,63.883,13.52,64,13.992,64C13.996,64,14,64,14,64h12h4c2.211,0,4-1.789,4-4V46c0-2.211-1.789-4-4-4h-9
		c-0.553,0-1-0.447-1-1V23C20,22.447,20.447,22,21,22z M26,2h4c1.103,0,2,0.897,2,2v14c0,1.103-0.897,2-2,2h-4V2z M22,2h2v18h-2V2z
		 M26,44h4c1.103,0,2,0.897,2,2v14c0,1.103-0.897,2-2,2h-4V44z M22,44h2v18h-2V44z M18,22v20c0,1.104,0.896,2,2,2v18h-6.008
		c-0.175,0-0.407-0.053-0.726-0.17l-0.09-0.031c-0.006-0.002-0.012-0.005-0.018-0.008c-0.18-0.08-0.338-0.183-0.493-0.323
		c-0.04-0.047-0.08-0.095-0.123-0.141c-0.045-0.05-0.091-0.1-0.138-0.148c-0.03-0.032-0.062-0.063-0.071-0.072
		c-0.031-0.047-0.099-0.14-0.203-0.274C9.687,57.643,4,48.447,4,32c0-19.467,8.524-29.346,8.586-29.414
		c0.179-0.18,0.397-0.324,0.655-0.431C13.488,2.053,13.744,2,14,2h6v18C18.896,20,18,20.896,18,22z"/>
</g>
</svg>