<svg width="100%" viewBox="0 0 200 200">
<path d="M60.4175,62.5c21.4675,0 40.9,8.8375 54.89,23.0475c3.515,-7.6575 5.525,-16.145 5.525,-25.13c0,-33.3675 -27.05,-60.4175 -60.415,-60.4175c-33.3675,0 -60.4175,27.05 -60.4175,60.4175c0,8.985 2.01,17.47 5.525,25.13c13.99,-14.21 33.4225,-23.0475 54.8925,-23.0475zM139.5825,0c-8.985,0 -17.47,2.01 -25.1375,5.525c14.2175,13.99 23.055,33.4225 23.055,54.8925c0,21.4675 -8.8375,40.9 -23.055,54.89c7.665,3.515 16.1525,5.525 25.1375,5.525c33.3675,0 60.4175,-27.05 60.4175,-60.415c0,-33.3675 -27.05,-60.4175 -60.4175,-60.4175zM62.5,139.5825c0,-21.4675 8.8375,-40.9 23.0475,-54.89c-7.6575,-3.515 -16.145,-5.525 -25.13,-5.525c-33.3675,0 -60.4175,27.05 -60.4175,60.415c0,33.3675 27.05,60.4175 60.4175,60.4175c8.985,0 17.47,-2.01 25.13,-5.525c-14.21,-13.99 -23.0475,-33.4225 -23.0475,-54.8925zM139.5825,137.5c-21.4675,0 -40.9,-8.8375 -54.89,-23.055c-3.515,7.665 -5.525,16.1525 -5.525,25.1375c0,33.3675 27.05,60.4175 60.415,60.4175c33.3675,0 60.4175,-27.05 60.4175,-60.4175c0,-8.985 -2.01,-17.47 -5.525,-25.1375c-13.99,14.2175 -33.4225,23.055 -54.8925,23.055z" fill-rule="evenodd"></path>
</svg>